<svg width="200" height="198" viewBox="0 0 200 198" fill="none" xmlns="http://www.w3.org/2000/svg">
<g filter="url(#filter0_d_37_2456)">
<rect x="9" y="6" width="176" height="176" rx="88" fill="#F2F5F8" shape-rendering="crispEdges"/>
<rect x="13" y="10" width="168" height="168" rx="84" stroke="white" stroke-width="8" shape-rendering="crispEdges"/>
<path d="M44.7352 66.5579C45.8675 70.7838 42.4189 75.3795 37.0323 76.8228C35.6856 77.1836 34.3454 77.3133 33.0749 77.2387" stroke="#99A0AE" stroke-width="3" stroke-linecap="round" stroke-linejoin="round"/>
<path d="M54.1429 101.666C55.2752 105.892 51.8266 110.488 46.44 111.931C45.0934 112.292 43.7531 112.422 42.4826 112.347" stroke="#99A0AE" stroke-width="3" stroke-linecap="round" stroke-linejoin="round"/>
<path d="M63.5499 136.774C64.6822 141 61.2335 145.596 55.847 147.039C54.5003 147.4 53.1601 147.53 51.8896 147.455" stroke="#99A0AE" stroke-width="3" stroke-linecap="round" stroke-linejoin="round"/>
<path d="M124.268 32.2182L50.4303 52.0029C46.6319 53.0206 44.3778 56.9249 45.3956 60.7233L71.1123 156.7C72.1301 160.498 76.0344 162.752 79.8327 161.734L153.67 141.95C157.469 140.932 159.723 137.028 158.705 133.229L132.988 37.2529C131.97 33.4545 128.066 31.2004 124.268 32.2182Z" fill="#E1E4EA" stroke="#99A0AE" stroke-linecap="round" stroke-linejoin="round"/>
<path d="M109.862 25.7661L36.0245 45.5508C32.2262 46.5685 29.972 50.4728 30.9898 54.2712L56.7066 150.247C57.7243 154.046 61.6286 156.3 65.427 155.282L139.264 135.497C143.063 134.48 145.317 130.575 144.299 126.777L118.582 30.8008C117.565 27.0024 113.66 24.7483 109.862 25.7661Z" fill="white" stroke="#99A0AE" stroke-linecap="round" stroke-linejoin="round"/>
<path d="M33.0752 77.238C29.2635 77.0144 26.0786 74.9531 25.2294 71.7838C24.0971 67.558 27.5458 62.9622 32.9323 61.5189C38.3189 60.0756 43.6034 62.3313 44.7357 66.5571" stroke="#99A0AE" stroke-width="3" stroke-linecap="round" stroke-linejoin="round"/>
<path d="M42.4822 112.346C38.6705 112.123 35.4856 110.061 34.6364 106.892C33.5041 102.666 36.9527 98.0706 42.3393 96.6273C47.7259 95.1839 53.0104 97.4396 54.1427 101.665" stroke="#99A0AE" stroke-width="3" stroke-linecap="round" stroke-linejoin="round"/>
<path d="M51.8892 147.455C48.0775 147.231 44.8926 145.17 44.0434 142C42.9111 137.775 46.3597 133.179 51.7463 131.736C57.1329 130.292 62.4173 132.548 63.5497 136.774" stroke="#99A0AE" stroke-width="3" stroke-linecap="round" stroke-linejoin="round"/>
<path d="M67.8625 74.5889C74.2119 72.8876 77.9799 66.3612 76.2786 60.0118C74.5772 53.6624 68.0508 49.8944 61.7014 51.5957C55.352 53.297 51.584 59.8234 53.2853 66.1728C54.9867 72.5222 61.5131 76.2902 67.8625 74.5889Z" fill="white" stroke="#99A0AE" stroke-linecap="round" stroke-linejoin="round"/>
<path d="M62.301 69.8002C62.301 69.8002 62.8905 67.7029 65.8081 66.9212C68.7257 66.1394 70.2848 67.6609 70.2848 67.6609" fill="white"/>
<path d="M62.301 69.8002C62.301 69.8002 62.8905 67.7029 65.8081 66.9212C68.7257 66.1394 70.2848 67.6609 70.2848 67.6609" stroke="#99A0AE" stroke-linecap="round" stroke-linejoin="round"/>
<path d="M60.1021 63.5078C61.0222 63.2612 61.5682 62.3155 61.3217 61.3953C61.0751 60.4752 60.1294 59.9292 59.2092 60.1757C58.2891 60.4223 57.7431 61.368 57.9896 62.2882C58.2362 63.2083 59.1819 63.7543 60.1021 63.5078Z" fill="#99A0AE" stroke="#99A0AE" stroke-linecap="round" stroke-linejoin="round"/>
<path d="M69.0427 61.1121C69.9629 60.8655 70.5089 59.9198 70.2624 58.9996C70.0158 58.0795 69.07 57.5335 68.1499 57.78C67.2298 58.0266 66.6838 58.9723 66.9303 59.8925C67.1768 60.8126 68.1226 61.3586 69.0427 61.1121Z" fill="#99A0AE" stroke="#99A0AE" stroke-linecap="round" stroke-linejoin="round"/>
<path d="M84.642 137.21C90.9914 135.509 94.7594 128.983 93.0581 122.633C91.3568 116.284 84.8304 112.516 78.481 114.217C72.1316 115.918 68.3636 122.445 70.0649 128.794C71.7662 135.144 78.2926 138.912 84.642 137.21Z" fill="white" stroke="#99A0AE" stroke-linecap="round" stroke-linejoin="round"/>
<path d="M78.5955 130.612C78.5955 130.612 80.1546 132.134 83.0722 131.352C85.9898 130.57 86.5793 128.473 86.5793 128.473" fill="white"/>
<path d="M78.5955 130.612C78.5955 130.612 80.1546 132.134 83.0722 131.352C85.9898 130.57 86.5793 128.473 86.5793 128.473" stroke="#99A0AE" stroke-linecap="round" stroke-linejoin="round"/>
<path d="M76.8816 126.129C77.8017 125.883 78.3478 124.937 78.1012 124.017C77.8547 123.097 76.9089 122.551 75.9888 122.797C75.0687 123.044 74.5226 123.989 74.7692 124.909C75.0157 125.83 75.9615 126.376 76.8816 126.129Z" fill="#99A0AE" stroke="#99A0AE" stroke-linecap="round" stroke-linejoin="round"/>
<path d="M85.8213 123.733C86.7414 123.487 87.2875 122.541 87.0409 121.621C86.7944 120.701 85.8486 120.155 84.9285 120.401C84.0084 120.648 83.4623 121.594 83.7089 122.514C83.9554 123.434 84.9012 123.98 85.8213 123.733Z" fill="#99A0AE" stroke="#99A0AE" stroke-linecap="round" stroke-linejoin="round"/>
<path d="M76.0102 104.995C82.3596 103.294 86.1276 96.7672 84.4263 90.4178C82.7249 84.0684 76.1985 80.3004 69.8491 82.0017C63.4997 83.703 59.7317 90.2294 61.433 96.5788C63.1344 102.928 69.6608 106.696 76.0102 104.995Z" fill="white" stroke="#99A0AE" stroke-linecap="round" stroke-linejoin="round"/>
<path d="M68.2498 93.9137C69.1699 93.6672 69.7159 92.7214 69.4694 91.8013C69.2228 90.8812 68.2771 90.3351 67.3569 90.5817C66.4368 90.8282 65.8908 91.774 66.1373 92.6941C66.3839 93.6142 67.3296 94.1603 68.2498 93.9137Z" fill="#99A0AE" stroke="#99A0AE" stroke-linecap="round" stroke-linejoin="round"/>
<path d="M77.1904 91.5181C78.1106 91.2715 78.6566 90.3258 78.4101 89.4057C78.1635 88.4855 77.2177 87.9395 76.2976 88.186C75.3775 88.4326 74.8315 89.3784 75.078 90.2985C75.3245 91.2186 76.2703 91.7646 77.1904 91.5181Z" fill="#99A0AE" stroke="#99A0AE" stroke-linecap="round" stroke-linejoin="round"/>
<path d="M70.2974 99.0715L77.996 97.0086" stroke="#99A0AE" stroke-linecap="round" stroke-linejoin="round"/>
<path d="M108.488 46.971L82.6147 53.9039C81.9563 54.0803 81.5656 54.757 81.742 55.4153L82.7543 59.1932C82.9307 59.8515 83.6074 60.2422 84.2658 60.0658L110.14 53.133C110.798 52.9566 111.189 52.2798 111.012 51.6215L110 47.8436C109.824 47.1853 109.147 46.7946 108.488 46.971Z" fill="#E1E4EA"/>
<path d="M116.912 78.4099L91.038 85.3428C90.3796 85.5192 89.989 86.1959 90.1654 86.8543L91.1776 90.6321C91.354 91.2905 92.0307 91.6812 92.6891 91.5048L118.563 84.5719C119.221 84.3955 119.612 83.7188 119.436 83.0605L118.423 79.2826C118.247 78.6242 117.57 78.2335 116.912 78.4099Z" fill="#E1E4EA"/>
<path d="M125.337 109.851L99.4631 116.783C98.8047 116.96 98.414 117.637 98.5904 118.295L99.6027 122.073C99.7791 122.731 100.456 123.122 101.114 122.945L126.988 116.013C127.646 115.836 128.037 115.159 127.861 114.501L126.848 110.723C126.672 110.065 125.995 109.674 125.337 109.851Z" fill="#E1E4EA"/>
<path d="M123.844 163.087L173.594 150.018C173.733 149.982 173.861 149.939 173.989 149.897C173.999 149.903 174.008 149.901 174.014 149.89C174.173 149.866 174.327 149.825 174.482 149.785C179.695 148.415 182.806 143.088 181.436 137.875C180.606 134.715 178.316 132.329 175.478 131.238C173.648 130.534 171.579 130.381 169.526 130.921L119.244 137.025C125.61 136.432 131.641 140.499 133.317 146.876C135.178 153.962 130.938 161.223 123.844 163.087Z" fill="#CACFD8" stroke="#99A0AE" stroke-linecap="round" stroke-linejoin="round"/>
<path d="M94.9461 105.215L107.634 153.622C109.496 160.708 116.757 164.948 123.843 163.087C130.938 161.223 135.178 153.962 133.316 146.876C131.641 140.498 125.609 136.431 119.243 137.024L169.526 130.92C171.578 130.381 173.647 130.534 175.478 131.237L163.911 87.0986C162.984 83.5718 159.374 81.464 155.855 82.3883L99.6461 97.1544C96.1193 98.0809 94.0196 101.689 94.9461 105.215Z" fill="#F2F5F8" stroke="#99A0AE" stroke-linecap="round" stroke-linejoin="round"/>
<path d="M151.683 97.1575L143.994 110.253" stroke="#99A0AE" stroke-linecap="round" stroke-linejoin="round"/>
<path d="M141.291 99.8613L154.386 107.55" stroke="#99A0AE" stroke-linecap="round" stroke-linejoin="round"/>
<path d="M119.937 105.415L112.248 118.51" stroke="#99A0AE" stroke-linecap="round" stroke-linejoin="round"/>
<path d="M109.546 108.118L122.641 115.807" stroke="#99A0AE" stroke-linecap="round" stroke-linejoin="round"/>
<path d="M150.682 119.92L123.737 126.928" stroke="#99A0AE" stroke-linecap="round" stroke-linejoin="round"/>
<path d="M21.6976 111.838C21.6976 111.838 15.3091 119.333 22.7564 125.725C15.309 119.333 8.86974 126.783 8.86974 126.783C8.86974 126.783 15.2582 119.289 7.81079 112.897C15.2582 119.289 21.6976 111.838 21.6976 111.838Z" fill="white" stroke="#99A0AE" stroke-linecap="round" stroke-linejoin="round"/>
<path d="M179.86 45.2433C179.86 45.2433 173.471 52.738 180.919 59.13C173.471 52.7379 167.032 60.1888 167.032 60.1888C167.032 60.1888 173.42 52.6942 165.973 46.302C173.42 52.6942 179.86 45.2433 179.86 45.2433Z" fill="white" stroke="#99A0AE" stroke-linecap="round" stroke-linejoin="round"/>
</g>
<defs>
<filter id="filter0_d_37_2456" x="0.810791" y="0.5" width="198.689" height="197" filterUnits="userSpaceOnUse" color-interpolation-filters="sRGB">
<feFlood flood-opacity="0" result="BackgroundImageFix"/>
<feColorMatrix in="SourceAlpha" type="matrix" values="0 0 0 0 0 0 0 0 0 0 0 0 0 0 0 0 0 0 127 0" result="hardAlpha"/>
<feOffset dx="4" dy="5"/>
<feGaussianBlur stdDeviation="5.25"/>
<feComposite in2="hardAlpha" operator="out"/>
<feColorMatrix type="matrix" values="0 0 0 0 0.0392157 0 0 0 0 0.0509804 0 0 0 0 0.0784314 0 0 0 0.1 0"/>
<feBlend mode="normal" in2="BackgroundImageFix" result="effect1_dropShadow_37_2456"/>
<feBlend mode="normal" in="SourceGraphic" in2="effect1_dropShadow_37_2456" result="shape"/>
</filter>
</defs>
</svg>
